<svg width="500" height="500" viewBox="0 0 500 500" fill="none" xmlns="http://www.w3.org/2000/svg">
<rect width="500" height="500" rx="80" fill="white"/>
<path d="M288.718 153C339.601 153 380.85 194.249 380.85 245.132V346.963C359.425 346.963 342.058 329.595 342.058 308.17V245.132C342.058 215.674 318.176 191.793 288.718 191.793H263.497C250.637 191.793 238.301 196.901 229.208 205.994L163.475 271.731C159.838 275.368 157.793 280.301 157.793 285.445V288.774C157.793 299.486 166.477 308.17 177.189 308.17H264.472C264.472 328.925 248.174 345.871 227.678 346.911L225.68 346.963H177.189C145.052 346.963 119 320.911 119 288.774V285.445C119 270.013 125.131 255.211 136.043 244.299L201.78 178.567C218.149 162.198 240.348 153 263.497 153H288.718Z" fill="#D85A30"/>
<path d="M303.265 206.34C316.655 206.34 327.511 217.195 327.511 230.585V342.114C306.086 342.114 288.718 324.746 288.718 303.321V245.132H272.504L240.813 276.823C236.266 281.37 230.098 283.925 223.668 283.925H184.354C182.323 283.925 181.306 281.47 182.742 280.034L249.338 213.443C253.885 208.896 260.05 206.34 266.48 206.34H303.265Z" fill="#D85A30"/>
</svg>
